<svg width="189" height="180" viewBox="0 0 189 180" fill="none" xmlns="http://www.w3.org/2000/svg">
<ellipse cx="90" cy="87" rx="90" ry="87" fill="#F48F27"/>
<ellipse cx="90" cy="87" rx="72.6923" ry="68.5962" fill="#FCAF67"/>
<ellipse cx="90" cy="90.3461" rx="70.9615" ry="65.25" fill="#FEA348"/>
<path d="M92.6953 49.5156V60.2383H87.4219V49.5156H92.6953ZM92.0625 106.926V116.312H86.8242V106.926H92.0625ZM99.0938 95.8164C99.0938 94.4102 98.7773 93.1445 98.1445 92.0195C97.5117 90.8945 96.4688 89.8633 95.0156 88.9258C93.5625 87.9883 91.6172 87.1211 89.1797 86.3242C86.2266 85.4102 83.6719 84.2969 81.5156 82.9844C79.3828 81.6719 77.7305 80.043 76.5586 78.0977C75.4102 76.1523 74.8359 73.7969 74.8359 71.0312C74.8359 68.1484 75.457 65.6641 76.6992 63.5781C77.9414 61.4922 79.6992 59.8867 81.9727 58.7617C84.2461 57.6367 86.918 57.0742 89.9883 57.0742C92.3789 57.0742 94.5117 57.4375 96.3867 58.1641C98.2617 58.8672 99.8438 59.9219 101.133 61.3281C102.445 62.7344 103.441 64.457 104.121 66.4961C104.824 68.5352 105.176 70.8906 105.176 73.5625H98.707C98.707 71.9922 98.5195 70.5508 98.1445 69.2383C97.7695 67.9258 97.207 66.7891 96.457 65.8281C95.707 64.8438 94.793 64.0938 93.7148 63.5781C92.6367 63.0391 91.3945 62.7695 89.9883 62.7695C88.0195 62.7695 86.3906 63.1094 85.1016 63.7891C83.8359 64.4688 82.8984 65.4297 82.2891 66.6719C81.6797 67.8906 81.375 69.3086 81.375 70.9258C81.375 72.4258 81.6797 73.7383 82.2891 74.8633C82.8984 75.9883 83.9297 77.0078 85.3828 77.9219C86.8594 78.8125 88.8867 79.6914 91.4648 80.5586C94.4883 81.5195 97.0547 82.6562 99.1641 83.9688C101.273 85.2578 102.879 86.8516 103.98 88.75C105.082 90.625 105.633 92.957 105.633 95.7461C105.633 98.7695 104.953 101.324 103.594 103.41C102.234 105.473 100.324 107.043 97.8633 108.121C95.4023 109.199 92.5195 109.738 89.2148 109.738C87.2227 109.738 85.2539 109.469 83.3086 108.93C81.3633 108.391 79.6055 107.512 78.0352 106.293C76.4648 105.051 75.2109 103.422 74.2734 101.406C73.3359 99.3672 72.8672 96.8711 72.8672 93.918H79.4062C79.4062 95.9102 79.6875 97.5625 80.25 98.875C80.8359 100.164 81.6094 101.195 82.5703 101.969C83.5312 102.719 84.5859 103.258 85.7344 103.586C86.9062 103.891 88.0664 104.043 89.2148 104.043C91.3242 104.043 93.1055 103.715 94.5586 103.059C96.0352 102.379 97.1602 101.418 97.9336 100.176C98.707 98.9336 99.0938 97.4805 99.0938 95.8164Z" fill="#FEFEFE" fill-opacity="0.5"/>
<ellipse cx="90" cy="87" rx="90" ry="87" fill="#F48F27"/>
<ellipse cx="90" cy="87" rx="72.6923" ry="68.5962" fill="#FCAF67"/>
<ellipse cx="90" cy="90.3461" rx="70.9615" ry="65.25" fill="#FEA348"/>
<path d="M92.6953 49.5156V60.2383H87.4219V49.5156H92.6953ZM92.0625 106.926V116.312H86.8242V106.926H92.0625ZM99.0938 95.8164C99.0938 94.4102 98.7773 93.1445 98.1445 92.0195C97.5117 90.8945 96.4688 89.8633 95.0156 88.9258C93.5625 87.9883 91.6172 87.1211 89.1797 86.3242C86.2266 85.4102 83.6719 84.2969 81.5156 82.9844C79.3828 81.6719 77.7305 80.043 76.5586 78.0977C75.4102 76.1523 74.8359 73.7969 74.8359 71.0312C74.8359 68.1484 75.457 65.6641 76.6992 63.5781C77.9414 61.4922 79.6992 59.8867 81.9727 58.7617C84.2461 57.6367 86.918 57.0742 89.9883 57.0742C92.3789 57.0742 94.5117 57.4375 96.3867 58.1641C98.2617 58.8672 99.8438 59.9219 101.133 61.3281C102.445 62.7344 103.441 64.457 104.121 66.4961C104.824 68.5352 105.176 70.8906 105.176 73.5625H98.707C98.707 71.9922 98.5195 70.5508 98.1445 69.2383C97.7695 67.9258 97.207 66.7891 96.457 65.8281C95.707 64.8438 94.793 64.0938 93.7148 63.5781C92.6367 63.0391 91.3945 62.7695 89.9883 62.7695C88.0195 62.7695 86.3906 63.1094 85.1016 63.7891C83.8359 64.4688 82.8984 65.4297 82.2891 66.6719C81.6797 67.8906 81.375 69.3086 81.375 70.9258C81.375 72.4258 81.6797 73.7383 82.2891 74.8633C82.8984 75.9883 83.9297 77.0078 85.3828 77.9219C86.8594 78.8125 88.8867 79.6914 91.4648 80.5586C94.4883 81.5195 97.0547 82.6562 99.1641 83.9688C101.273 85.2578 102.879 86.8516 103.98 88.75C105.082 90.625 105.633 92.957 105.633 95.7461C105.633 98.7695 104.953 101.324 103.594 103.41C102.234 105.473 100.324 107.043 97.8633 108.121C95.4023 109.199 92.5195 109.738 89.2148 109.738C87.2227 109.738 85.2539 109.469 83.3086 108.93C81.3633 108.391 79.6055 107.512 78.0352 106.293C76.4648 105.051 75.2109 103.422 74.2734 101.406C73.3359 99.3672 72.8672 96.8711 72.8672 93.918H79.4062C79.4062 95.9102 79.6875 97.5625 80.25 98.875C80.8359 100.164 81.6094 101.195 82.5703 101.969C83.5312 102.719 84.5859 103.258 85.7344 103.586C86.9062 103.891 88.0664 104.043 89.2148 104.043C91.3242 104.043 93.1055 103.715 94.5586 103.059C96.0352 102.379 97.1602 101.418 97.9336 100.176C98.707 98.9336 99.0938 97.4805 99.0938 95.8164Z" fill="#FEFEFE" fill-opacity="0.5"/>
<circle cx="90" cy="90" r="90" fill="#F48F27"/>
<path d="M162.692 90C162.692 129.191 130.147 160.962 90 160.962C49.8531 160.962 17.3077 129.191 17.3077 90C17.3077 50.809 49.8531 19.0385 90 19.0385C130.147 19.0385 162.692 50.809 162.692 90Z" fill="#FCAF67"/>
<path d="M51.1362 93.8C53.2028 93.8 54.7828 94.3733 55.8762 95.52C56.9828 96.6667 57.5362 98.2933 57.5362 100.4C57.5362 102.507 56.9828 104.133 55.8762 105.28C54.7828 106.427 53.2028 107 51.1362 107H45.5362V93.8H51.1362ZM50.7962 104.4C51.9162 104.4 52.7295 104.067 53.2362 103.4C53.7562 102.72 54.0162 101.72 54.0162 100.4C54.0162 99.08 53.7562 98.0867 53.2362 97.42C52.7295 96.74 51.9162 96.4 50.7962 96.4H48.9762V104.4H50.7962ZM64.4116 96.8C65.465 96.8 66.385 97.0067 67.1716 97.42C67.9716 97.82 68.5916 98.4133 69.0316 99.2C69.485 99.9733 69.7116 100.907 69.7116 102C69.7116 103.093 69.485 104.033 69.0316 104.82C68.5916 105.593 67.9716 106.187 67.1716 106.6C66.385 107 65.465 107.2 64.4116 107.2C63.385 107.2 62.4716 107 61.6716 106.6C60.8716 106.187 60.245 105.593 59.7916 104.82C59.3516 104.033 59.1316 103.093 59.1316 102C59.1316 100.907 59.3516 99.9733 59.7916 99.2C60.245 98.4133 60.8716 97.82 61.6716 97.42C62.4716 97.0067 63.385 96.8 64.4116 96.8ZM64.4116 99.22C64.025 99.22 63.6916 99.3133 63.4116 99.5C63.1316 99.6867 62.9183 99.9867 62.7716 100.4C62.625 100.813 62.5516 101.347 62.5516 102C62.5516 102.653 62.625 103.187 62.7716 103.6C62.9183 104 63.1316 104.3 63.4116 104.5C63.6916 104.687 64.025 104.78 64.4116 104.78C64.8116 104.78 65.1516 104.687 65.4316 104.5C65.7116 104.3 65.925 104 66.0716 103.6C66.2183 103.187 66.2916 102.653 66.2916 102C66.2916 101.347 66.2183 100.813 66.0716 100.4C65.925 99.9867 65.7116 99.6867 65.4316 99.5C65.1516 99.3133 64.8116 99.22 64.4116 99.22ZM71.6243 107V97H74.6643L74.8443 100.44L74.4643 100.06C74.5976 99.34 74.831 98.74 75.1643 98.26C75.511 97.78 75.9376 97.42 76.4443 97.18C76.9643 96.9267 77.5443 96.8 78.1843 96.8C78.8776 96.8 79.4776 96.9333 79.9843 97.2C80.5043 97.4667 80.911 97.86 81.2043 98.38C81.4976 98.9 81.6443 99.5533 81.6443 100.34V107H78.2443V101.24C78.2443 100.547 78.111 100.067 77.8443 99.8C77.5776 99.5333 77.2376 99.4 76.8243 99.4C76.5043 99.4 76.2043 99.48 75.9243 99.64C75.6443 99.7867 75.4243 100.027 75.2643 100.36C75.1043 100.693 75.0243 101.14 75.0243 101.7V107H71.6243ZM89.6066 100.66C89.6066 100.193 89.4733 99.8267 89.2066 99.56C88.9533 99.28 88.6066 99.14 88.1666 99.14C87.7266 99.14 87.3466 99.2533 87.0266 99.48C86.72 99.6933 86.5066 100.08 86.3866 100.64L83.5066 99.96C83.6933 99 84.1866 98.2333 84.9866 97.66C85.7866 97.0867 86.9133 96.8 88.3666 96.8C89.34 96.8 90.1666 96.9467 90.8466 97.24C91.54 97.52 92.0666 97.9467 92.4266 98.52C92.8 99.08 92.9866 99.7733 92.9866 100.6V104.26C92.9866 104.78 93.22 105.04 93.6866 105.04C93.9266 105.04 94.12 105.013 94.2666 104.96L94.0666 106.9C93.6666 107.087 93.18 107.18 92.6066 107.18C92.0866 107.18 91.6266 107.1 91.2266 106.94C90.8266 106.767 90.5133 106.513 90.2866 106.18C90.06 105.833 89.9466 105.4 89.9466 104.88V104.76L90.3266 104.62C90.3266 105.193 90.1533 105.673 89.8066 106.06C89.4733 106.447 89.0333 106.733 88.4866 106.92C87.9533 107.107 87.3933 107.2 86.8066 107.2C86.1266 107.2 85.5333 107.093 85.0266 106.88C84.52 106.667 84.1266 106.36 83.8466 105.96C83.58 105.547 83.4466 105.04 83.4466 104.44C83.4466 103.72 83.66 103.127 84.0866 102.66C84.5266 102.18 85.2133 101.847 86.1466 101.66L89.9266 100.88L89.9066 102.68L87.9866 103.08C87.5866 103.16 87.2866 103.28 87.0866 103.44C86.9 103.587 86.8066 103.813 86.8066 104.12C86.8066 104.413 86.9133 104.633 87.1266 104.78C87.34 104.927 87.5933 105 87.8866 105C88.1133 105 88.3266 104.967 88.5266 104.9C88.74 104.833 88.9266 104.733 89.0866 104.6C89.2466 104.453 89.3733 104.273 89.4666 104.06C89.56 103.847 89.6066 103.593 89.6066 103.3V100.66ZM99.398 93.82V103.44C99.398 103.92 99.5114 104.267 99.738 104.48C99.978 104.68 100.305 104.78 100.718 104.78C101.038 104.78 101.311 104.747 101.538 104.68C101.778 104.6 101.991 104.487 102.178 104.34L102.538 106.44C102.205 106.68 101.785 106.867 101.278 107C100.771 107.133 100.251 107.2 99.718 107.2C98.958 107.2 98.298 107.093 97.738 106.88C97.1914 106.667 96.7647 106.327 96.458 105.86C96.1647 105.393 96.0114 104.773 95.998 104V94.76L99.398 93.82ZM102.378 97V99.42H94.278V97H102.378ZM105.649 95.84C104.955 95.84 104.449 95.7133 104.129 95.46C103.822 95.1933 103.669 94.78 103.669 94.22C103.669 93.6467 103.822 93.2333 104.129 92.98C104.449 92.7133 104.955 92.58 105.649 92.58C106.329 92.58 106.829 92.7133 107.149 92.98C107.469 93.2333 107.629 93.6467 107.629 94.22C107.629 94.78 107.469 95.1933 107.149 95.46C106.829 95.7133 106.329 95.84 105.649 95.84ZM107.349 97V107H103.949V97H107.349ZM114.529 96.8C115.582 96.8 116.502 97.0067 117.289 97.42C118.089 97.82 118.709 98.4133 119.149 99.2C119.602 99.9733 119.829 100.907 119.829 102C119.829 103.093 119.602 104.033 119.149 104.82C118.709 105.593 118.089 106.187 117.289 106.6C116.502 107 115.582 107.2 114.529 107.2C113.502 107.2 112.589 107 111.789 106.6C110.989 106.187 110.362 105.593 109.909 104.82C109.469 104.033 109.249 103.093 109.249 102C109.249 100.907 109.469 99.9733 109.909 99.2C110.362 98.4133 110.989 97.82 111.789 97.42C112.589 97.0067 113.502 96.8 114.529 96.8ZM114.529 99.22C114.142 99.22 113.809 99.3133 113.529 99.5C113.249 99.6867 113.035 99.9867 112.889 100.4C112.742 100.813 112.669 101.347 112.669 102C112.669 102.653 112.742 103.187 112.889 103.6C113.035 104 113.249 104.3 113.529 104.5C113.809 104.687 114.142 104.78 114.529 104.78C114.929 104.78 115.269 104.687 115.549 104.5C115.829 104.3 116.042 104 116.189 103.6C116.335 103.187 116.409 102.653 116.409 102C116.409 101.347 116.335 100.813 116.189 100.4C116.042 99.9867 115.829 99.6867 115.549 99.5C115.269 99.3133 114.929 99.22 114.529 99.22ZM121.741 107V97H124.781L124.961 100.44L124.581 100.06C124.715 99.34 124.948 98.74 125.281 98.26C125.628 97.78 126.055 97.42 126.561 97.18C127.081 96.9267 127.661 96.8 128.301 96.8C128.995 96.8 129.595 96.9333 130.101 97.2C130.621 97.4667 131.028 97.86 131.321 98.38C131.615 98.9 131.761 99.5533 131.761 100.34V107H128.361V101.24C128.361 100.547 128.228 100.067 127.961 99.8C127.695 99.5333 127.355 99.4 126.941 99.4C126.621 99.4 126.321 99.48 126.041 99.64C125.761 99.7867 125.541 100.027 125.381 100.36C125.221 100.693 125.141 101.14 125.141 101.7V107H121.741Z" fill="white"/>
<path d="M33.06 74.8C35.1267 74.8 36.7067 75.3733 37.8 76.52C38.9067 77.6667 39.46 79.2933 39.46 81.4C39.46 83.5067 38.9067 85.1333 37.8 86.28C36.7067 87.4267 35.1267 88 33.06 88H27.46V74.8H33.06ZM32.72 85.4C33.84 85.4 34.6533 85.0667 35.16 84.4C35.68 83.72 35.94 82.72 35.94 81.4C35.94 80.08 35.68 79.0867 35.16 78.42C34.6533 77.74 33.84 77.4 32.72 77.4H30.9V85.4H32.72ZM46.4555 88.2C45.3488 88.2 44.3888 87.9933 43.5755 87.58C42.7755 87.1667 42.1555 86.5733 41.7155 85.8C41.2755 85.0267 41.0555 84.0933 41.0555 83C41.0555 81.9067 41.2755 80.9733 41.7155 80.2C42.1555 79.4267 42.7688 78.8333 43.5555 78.42C44.3555 78.0067 45.2688 77.8 46.2955 77.8C47.3488 77.8 48.2421 78.0067 48.9755 78.42C49.7221 78.82 50.2888 79.38 50.6755 80.1C51.0621 80.8067 51.2555 81.62 51.2555 82.54C51.2555 82.78 51.2488 83.02 51.2355 83.26C51.2221 83.5 51.2021 83.7 51.1755 83.86H43.2555V82.04H49.6755L48.0555 82.66C48.0555 81.86 47.9088 81.2467 47.6155 80.82C47.3355 80.3933 46.8955 80.18 46.2955 80.18C45.8688 80.18 45.5021 80.28 45.1955 80.48C44.9021 80.68 44.6755 80.9933 44.5155 81.42C44.3688 81.8467 44.2955 82.3933 44.2955 83.06C44.2955 83.7133 44.3821 84.2467 44.5555 84.66C44.7288 85.06 44.9755 85.3533 45.2955 85.54C45.6155 85.7133 46.0021 85.8 46.4555 85.8C46.9621 85.8 47.3621 85.7 47.6555 85.5C47.9621 85.3 48.1888 85.02 48.3355 84.66L51.0555 85.56C50.8688 86.1333 50.5421 86.62 50.0755 87.02C49.6221 87.4067 49.0755 87.7 48.4355 87.9C47.8088 88.1 47.1488 88.2 46.4555 88.2ZM57.8975 77.8C58.9108 77.8 59.7508 77.9467 60.4175 78.24C61.0975 78.52 61.6242 78.9 61.9975 79.38C62.3842 79.8467 62.6242 80.3533 62.7175 80.9L59.5775 81.94C59.4842 81.3667 59.3108 80.94 59.0575 80.66C58.8175 80.3667 58.4642 80.22 57.9975 80.22C57.5708 80.22 57.2108 80.32 56.9175 80.52C56.6375 80.7067 56.4242 81.0133 56.2775 81.44C56.1308 81.8533 56.0575 82.3867 56.0575 83.04C56.0575 83.6933 56.1375 84.2267 56.2975 84.64C56.4575 85.04 56.6842 85.3333 56.9775 85.52C57.2708 85.6933 57.6175 85.78 58.0175 85.78C58.3508 85.78 58.6242 85.72 58.8375 85.6C59.0642 85.4667 59.2508 85.28 59.3975 85.04C59.5442 84.8 59.6375 84.5067 59.6775 84.16L62.7375 85.14C62.6442 85.7267 62.3908 86.2533 61.9775 86.72C61.5775 87.1733 61.0442 87.5333 60.3775 87.8C59.7108 88.0667 58.9308 88.2 58.0375 88.2C56.9442 88.2 55.9908 88 55.1775 87.6C54.3642 87.1867 53.7375 86.5933 53.2975 85.82C52.8575 85.0333 52.6375 84.0933 52.6375 83C52.6375 81.9067 52.8575 80.9733 53.2975 80.2C53.7375 79.4133 54.3508 78.82 55.1375 78.42C55.9375 78.0067 56.8575 77.8 57.8975 77.8ZM69.3852 88.2C68.2785 88.2 67.3185 87.9933 66.5052 87.58C65.7052 87.1667 65.0852 86.5733 64.6452 85.8C64.2052 85.0267 63.9852 84.0933 63.9852 83C63.9852 81.9067 64.2052 80.9733 64.6452 80.2C65.0852 79.4267 65.6985 78.8333 66.4852 78.42C67.2852 78.0067 68.1985 77.8 69.2252 77.8C70.2785 77.8 71.1718 78.0067 71.9052 78.42C72.6518 78.82 73.2185 79.38 73.6052 80.1C73.9918 80.8067 74.1852 81.62 74.1852 82.54C74.1852 82.78 74.1785 83.02 74.1652 83.26C74.1518 83.5 74.1318 83.7 74.1052 83.86H66.1852V82.04H72.6052L70.9852 82.66C70.9852 81.86 70.8385 81.2467 70.5452 80.82C70.2652 80.3933 69.8252 80.18 69.2252 80.18C68.7985 80.18 68.4318 80.28 68.1252 80.48C67.8318 80.68 67.6052 80.9933 67.4452 81.42C67.2985 81.8467 67.2252 82.3933 67.2252 83.06C67.2252 83.7133 67.3118 84.2467 67.4852 84.66C67.6585 85.06 67.9052 85.3533 68.2252 85.54C68.5452 85.7133 68.9318 85.8 69.3852 85.8C69.8918 85.8 70.2918 85.7 70.5852 85.5C70.8918 85.3 71.1185 85.02 71.2652 84.66L73.9852 85.56C73.7985 86.1333 73.4718 86.62 73.0052 87.02C72.5518 87.4067 72.0052 87.7 71.3652 87.9C70.7385 88.1 70.0785 88.2 69.3852 88.2ZM76.0872 88V78H79.1272L79.3072 81.44L78.9272 81.06C79.0605 80.34 79.2939 79.74 79.6272 79.26C79.9739 78.78 80.4005 78.42 80.9072 78.18C81.4272 77.9267 82.0072 77.8 82.6472 77.8C83.3405 77.8 83.9405 77.9333 84.4472 78.2C84.9672 78.4667 85.3739 78.86 85.6672 79.38C85.9605 79.9 86.1072 80.5533 86.1072 81.34V88H82.7072V82.24C82.7072 81.5467 82.5739 81.0667 82.3072 80.8C82.0405 80.5333 81.7005 80.4 81.2872 80.4C80.9672 80.4 80.6672 80.48 80.3872 80.64C80.1072 80.7867 79.8872 81.0267 79.7272 81.36C79.5672 81.6933 79.4872 82.14 79.4872 82.7V88H76.0872ZM92.6109 74.82V84.44C92.6109 84.92 92.7243 85.2667 92.9509 85.48C93.1909 85.68 93.5176 85.78 93.9309 85.78C94.2509 85.78 94.5243 85.7467 94.7509 85.68C94.9909 85.6 95.2043 85.4867 95.3909 85.34L95.7509 87.44C95.4176 87.68 94.9976 87.8667 94.4909 88C93.9843 88.1333 93.4643 88.2 92.9309 88.2C92.1709 88.2 91.5109 88.0933 90.9509 87.88C90.4043 87.6667 89.9776 87.3267 89.6709 86.86C89.3776 86.3933 89.2243 85.7733 89.2109 85V75.76L92.6109 74.82ZM95.5909 78V80.42H87.4909V78H95.5909ZM97.1614 88V78H100.161L100.301 80.16C100.555 79.4133 100.928 78.8333 101.421 78.42C101.928 78.0067 102.568 77.8 103.341 77.8C103.595 77.8 103.808 77.82 103.981 77.86C104.168 77.9 104.315 77.9533 104.421 78.02L104.081 80.82C103.948 80.7667 103.775 80.7267 103.561 80.7C103.361 80.66 103.115 80.64 102.821 80.64C102.421 80.64 102.048 80.7267 101.701 80.9C101.355 81.0733 101.075 81.3333 100.861 81.68C100.661 82.0133 100.561 82.44 100.561 82.96V88H97.1614ZM111.238 81.66C111.238 81.1933 111.104 80.8267 110.838 80.56C110.584 80.28 110.238 80.14 109.798 80.14C109.358 80.14 108.978 80.2533 108.658 80.48C108.351 80.6933 108.138 81.08 108.018 81.64L105.138 80.96C105.324 80 105.818 79.2333 106.618 78.66C107.418 78.0867 108.544 77.8 109.998 77.8C110.971 77.8 111.798 77.9467 112.478 78.24C113.171 78.52 113.698 78.9467 114.058 79.52C114.431 80.08 114.618 80.7733 114.618 81.6V85.26C114.618 85.78 114.851 86.04 115.318 86.04C115.558 86.04 115.751 86.0133 115.898 85.96L115.698 87.9C115.298 88.0867 114.811 88.18 114.238 88.18C113.718 88.18 113.258 88.1 112.858 87.94C112.458 87.7667 112.144 87.5133 111.918 87.18C111.691 86.8333 111.578 86.4 111.578 85.88V85.76L111.958 85.62C111.958 86.1933 111.784 86.6733 111.438 87.06C111.104 87.4467 110.664 87.7333 110.118 87.92C109.584 88.1067 109.024 88.2 108.438 88.2C107.758 88.2 107.164 88.0933 106.658 87.88C106.151 87.6667 105.758 87.36 105.478 86.96C105.211 86.5467 105.078 86.04 105.078 85.44C105.078 84.72 105.291 84.1267 105.718 83.66C106.158 83.18 106.844 82.8467 107.778 82.66L111.558 81.88L111.538 83.68L109.618 84.08C109.218 84.16 108.918 84.28 108.718 84.44C108.531 84.5867 108.438 84.8133 108.438 85.12C108.438 85.4133 108.544 85.6333 108.758 85.78C108.971 85.9267 109.224 86 109.518 86C109.744 86 109.958 85.9667 110.158 85.9C110.371 85.8333 110.558 85.7333 110.718 85.6C110.878 85.4533 111.004 85.2733 111.098 85.06C111.191 84.8467 111.238 84.5933 111.238 84.3V81.66ZM118.94 76.84C118.246 76.84 117.74 76.7133 117.42 76.46C117.113 76.1933 116.96 75.78 116.96 75.22C116.96 74.6467 117.113 74.2333 117.42 73.98C117.74 73.7133 118.246 73.58 118.94 73.58C119.62 73.58 120.12 73.7133 120.44 73.98C120.76 74.2333 120.92 74.6467 120.92 75.22C120.92 75.78 120.76 76.1933 120.44 76.46C120.12 76.7133 119.62 76.84 118.94 76.84ZM120.64 78V88H117.24V78H120.64ZM122.54 88V85.92L126.52 81.4L127.58 80.34L126 80.38H122.58V78H131.34V80.08L127.42 84.56L126.32 85.66L128.08 85.62H131.52V88H122.54ZM138.194 88.2C137.087 88.2 136.127 87.9933 135.314 87.58C134.514 87.1667 133.894 86.5733 133.454 85.8C133.014 85.0267 132.794 84.0933 132.794 83C132.794 81.9067 133.014 80.9733 133.454 80.2C133.894 79.4267 134.507 78.8333 135.294 78.42C136.094 78.0067 137.007 77.8 138.034 77.8C139.087 77.8 139.98 78.0067 140.714 78.42C141.46 78.82 142.027 79.38 142.414 80.1C142.8 80.8067 142.994 81.62 142.994 82.54C142.994 82.78 142.987 83.02 142.974 83.26C142.96 83.5 142.94 83.7 142.914 83.86H134.994V82.04H141.414L139.794 82.66C139.794 81.86 139.647 81.2467 139.354 80.82C139.074 80.3933 138.634 80.18 138.034 80.18C137.607 80.18 137.24 80.28 136.934 80.48C136.64 80.68 136.414 80.9933 136.254 81.42C136.107 81.8467 136.034 82.3933 136.034 83.06C136.034 83.7133 136.12 84.2467 136.294 84.66C136.467 85.06 136.714 85.3533 137.034 85.54C137.354 85.7133 137.74 85.8 138.194 85.8C138.7 85.8 139.1 85.7 139.394 85.5C139.7 85.3 139.927 85.02 140.074 84.66L142.794 85.56C142.607 86.1333 142.28 86.62 141.814 87.02C141.36 87.4067 140.814 87.7 140.174 87.9C139.547 88.1 138.887 88.2 138.194 88.2ZM148.576 88.2C147.749 88.2 147.022 88 146.396 87.6C145.782 87.1867 145.302 86.5933 144.956 85.82C144.622 85.0467 144.456 84.12 144.456 83.04C144.456 81.92 144.629 80.9733 144.976 80.2C145.336 79.4267 145.829 78.8333 146.456 78.42C147.096 78.0067 147.829 77.8 148.656 77.8C149.562 77.8 150.289 78.08 150.836 78.64C151.396 79.1867 151.756 79.8867 151.916 80.74L151.596 81.16V73.76H154.996V88H151.956L151.736 84.6L152.136 84.9C152.056 85.5667 151.849 86.1467 151.516 86.64C151.196 87.1333 150.782 87.52 150.276 87.8C149.782 88.0667 149.216 88.2 148.576 88.2ZM149.756 85.7C150.142 85.7 150.469 85.6 150.736 85.4C151.016 85.1867 151.229 84.8733 151.376 84.46C151.522 84.0467 151.596 83.54 151.596 82.94C151.596 82.38 151.522 81.9067 151.376 81.52C151.242 81.12 151.036 80.82 150.756 80.62C150.489 80.4067 150.162 80.3 149.776 80.3C149.189 80.3 148.722 80.52 148.376 80.96C148.042 81.3867 147.876 82.0667 147.876 83C147.876 83.9333 148.042 84.62 148.376 85.06C148.709 85.4867 149.169 85.7 149.756 85.7Z" fill="white"/>
</svg>
